<?xml version="1.0" standalone="no"?>
<!DOCTYPE svg PUBLIC "-//W3C//DTD SVG 20010904//EN"
 "http://www.w3.org/TR/2001/REC-SVG-20010904/DTD/svg10.dtd">
<svg version="1.0" xmlns="http://www.w3.org/2000/svg"
 width="137.000000pt" height="137.000000pt" viewBox="0 0 137.000000 137.000000"
 preserveAspectRatio="xMidYMid meet">
<metadata>
Created by potrace 1.14, written by Peter Selinger 2001-2017
</metadata>
<g transform="translate(0.000000,137.000000) scale(0.100000,-0.100000)"
fill="#000000" stroke="none">
<path d="M530 1356 c-71 -27 -88 -35 -94 -45 -3 -5 -24 -12 -46 -16 -47 -8
-100 -61 -101 -103 -1 -43 -7 -69 -28 -114 -11 -24 -23 -54 -27 -68 -4 -14
-15 -36 -25 -49 -11 -13 -19 -30 -19 -38 0 -7 -8 -30 -19 -51 -25 -52 -21
-215 9 -332 21 -80 81 -191 129 -242 120 -124 142 -143 196 -169 33 -16 67
-29 76 -29 24 0 79 -29 124 -66 60 -49 95 -37 100 34 2 21 18 72 38 113 193
408 131 761 -167 957 l-70 45 68 19 c81 22 145 53 153 74 9 25 -17 42 -106 69
-94 28 -139 30 -191 11z"/>
</g>
</svg>
